<svg width="470" height="282" viewBox="0 0 470 282" fill="none" xmlns="http://www.w3.org/2000/svg">
<path d="M0 0H470V282H0V0Z" fill="#FA9938"/>
<g clip-path="url(#clip0_67_159)">
<path fill-rule="evenodd" clip-rule="evenodd" d="M95.0114 195.206V110.721C95.0114 104.837 99.8677 100.067 105.884 100.067H118.906V72.0292C118.906 66.146 123.787 61.3756 129.779 61.3756H214.535V40.4448C214.535 34.5616 219.416 29.7912 225.407 29.7912H294.967C300.983 29.7912 305.839 34.5616 305.839 40.4448V56.7637H351.116C353.992 56.7637 356.77 57.886 358.8 59.8841C360.829 61.8823 361.988 64.5929 361.988 67.4173V190.944V235.034C361.988 235.172 361.988 235.311 361.988 235.448C361.988 239.362 360.056 244.686 356.673 248.008C353.267 251.337 348.676 253.209 343.868 253.209C343.361 253.209 326.255 253.209 325.748 253.209C323.114 253.209 320.553 252.65 318.209 251.603C314.875 252.646 311.299 253.209 307.602 253.209H289.482C284.746 253.209 280.229 252.281 276.097 250.6C274.188 252.224 271.7 253.209 268.969 253.209H202.527C201.465 253.209 200.473 253.062 199.507 252.792C197.743 253.067 195.907 253.209 194.046 253.209H175.926C170.997 253.209 166.31 252.205 162.034 250.396C157.781 252.205 153.094 253.209 148.141 253.209H130.02C110.692 253.209 95.0114 237.828 95.0114 218.881V195.206Z" fill="black"/>
<path fill-rule="evenodd" clip-rule="evenodd" d="M325.675 228.348C323.752 228.348 321.911 229.097 320.548 230.428C319.19 231.761 318.427 233.567 318.427 235.451C318.427 235.452 318.427 235.454 318.427 235.456C318.427 237.34 319.19 239.146 320.548 240.478C321.911 241.81 323.752 242.558 325.675 242.558C327.598 242.558 329.444 241.81 330.802 240.478C332.16 239.147 332.924 237.34 332.924 235.457C332.924 235.454 332.924 235.451 332.924 235.45C332.924 233.566 332.16 231.76 330.802 230.428C329.444 229.097 327.598 228.348 325.675 228.348ZM175.868 195.209C162.541 195.209 151.717 205.817 151.717 218.883C151.717 231.95 162.541 242.558 175.868 242.558C189.2 242.558 200.024 231.95 200.024 218.883C200.024 205.817 189.2 195.209 175.868 195.209ZM214.535 235.453H219.368V242.558H202.455V235.453H207.287V195.209H214.535V201.981C218.894 197.792 224.862 195.209 231.438 195.209V202.314C222.112 202.314 214.535 209.739 214.535 218.883V235.453ZM245.944 201.981C250.303 197.792 256.271 195.209 262.847 195.209V202.314C253.521 202.314 245.944 209.739 245.944 218.883V235.453H250.777V242.558H233.864V235.453H238.696V195.209H245.944V201.981ZM149.282 233.09C144.875 238.838 137.859 242.558 129.963 242.558C116.636 242.558 105.812 231.95 105.812 218.883C105.812 205.817 116.636 195.209 129.963 195.209C137.859 195.209 144.875 198.929 149.282 204.677L143.483 208.941C140.4 204.918 135.491 202.314 129.963 202.314C120.637 202.314 113.06 209.739 113.06 218.883C113.06 228.028 120.637 235.453 129.963 235.453C135.491 235.453 140.4 232.849 143.483 228.826L149.282 233.09ZM272.913 222.436C274.57 229.876 281.34 235.453 289.424 235.453C294.952 235.453 299.862 232.847 302.949 228.822L308.743 233.085C304.336 238.836 297.32 242.558 289.424 242.558C276.097 242.558 265.273 231.95 265.273 218.883C265.273 205.817 276.097 195.209 289.424 195.209C302.756 195.209 313.58 205.817 313.58 218.883H313.571L313.58 218.892V222.436H272.913ZM175.868 202.314C185.199 202.314 192.776 209.739 192.776 218.883C192.776 228.028 185.199 235.453 175.868 235.453C166.542 235.453 158.965 228.028 158.965 218.883C158.965 209.739 166.542 202.314 175.868 202.314ZM305.941 215.331H272.913C274.57 207.891 281.34 202.314 289.424 202.314C297.513 202.314 304.278 207.891 305.941 215.331Z" fill="white"/>
<path fill-rule="evenodd" clip-rule="evenodd" d="M110.898 184.553V161.965H148.466V184.553H153.589V122.435H129.682V110.723H105.776V184.553H110.898ZM134.8 143.355H110.892V150.048H134.8V143.355ZM114.308 145.026H112.598V148.372H114.308V145.026ZM121.143 119.091H114.311V125.784H121.143V119.091ZM117.728 120.762H116.02V124.108H117.728V120.762ZM136.505 143.355H148.458V150.048H136.505V143.355ZM138.211 145.026H139.919V148.372H138.211V145.026Z" fill="#B274F0"/>
<path fill-rule="evenodd" clip-rule="evenodd" d="M221.756 110.725H173.942V134.151H221.756V110.725ZM189.316 118.257H182.485V124.949H189.316V118.257ZM185.899 119.927H184.191V123.274H185.899V119.927ZM206.389 118.257H213.22V121.603H206.389V118.257Z" fill="#FB9C37"/>
<path d="M332.934 67.42H330.372V94.0177H332.934V67.42Z" fill="#88D0AC"/>
<path d="M263.793 67.4176H261.231V94.0153H263.793V67.4176Z" fill="#88D0AC"/>
<path d="M286.774 67.42H284.212V94.0177H286.774V67.42Z" fill="#88D0AC"/>
<path d="M309.854 67.4228H307.292V94.0205H309.854V67.4228Z" fill="#88D0AC"/>
<path d="M201.432 73.4371H198.017V97.3986H201.432V73.4371Z" fill="#F3A797"/>
<path fill-rule="evenodd" clip-rule="evenodd" d="M165.614 75.3799V95.4585H201.469V107.173H129.759V72.0324H201.469V75.3799H198.062H165.614ZM153.654 82.0751H141.719V88.7679H153.654V82.0751ZM145.125 83.7442V87.0918H143.41V83.7442H145.125Z" fill="#E84F30"/>
<path fill-rule="evenodd" clip-rule="evenodd" d="M257.544 110.723H225.313V40.4475H276.751V63.8689H261.168C259.162 63.8689 257.544 65.4574 257.544 67.4176V110.723ZM242.347 95.6639H235.122V100.681H233.866V102.352H235.122V102.357H242.347V102.352H243.603V100.681H242.347V95.6639ZM266.943 48.8118H259.743V53.8308H258.486V55.5046H259.743H266.943H268.223V53.8308H266.943V48.8118ZM235.122 48.8118V53.8308H233.866V55.5046H235.122H242.347H243.603V53.8308H242.347V48.8118H235.122ZM242.347 72.2378H235.122V77.2569H233.866V78.9306H235.122H242.347H243.603V77.2569H242.347V72.2378Z" fill="#C9731D"/>
<path fill-rule="evenodd" clip-rule="evenodd" d="M305.589 134.145V121.594C305.589 120.262 305.058 118.986 304.091 118.046C303.125 117.103 301.844 116.576 300.467 116.576C299.114 116.576 297.81 117.103 296.843 118.046C295.901 118.986 295.345 120.262 295.345 121.594V134.145H261.206V90.8437H332.915V184.548H305.613V134.145H305.589ZM274.011 97.5366C272.875 97.5366 271.788 97.9769 270.991 98.7628C270.194 99.5465 269.735 100.61 269.735 101.72H274.857V97.5366H274.011ZM276.572 103.394V107.575H281.694V103.394H276.572ZM288.531 101.72C288.531 100.61 288.073 99.5465 287.276 98.7628C286.478 97.9769 285.391 97.5366 284.255 97.5366H283.409V101.72H288.531ZM274.857 103.394H269.735C269.735 104.502 270.194 105.567 270.991 106.351C271.788 107.134 272.875 107.575 274.011 107.575H274.857V103.394ZM281.694 97.5366H276.572V101.72H281.694V97.5366ZM324.387 103.394H319.264V107.575H320.11C321.245 107.575 322.333 107.134 323.13 106.351C323.928 105.567 324.387 104.502 324.387 103.394ZM283.409 103.394V107.575H284.255C285.391 107.575 286.478 107.134 287.276 106.351C288.073 105.567 288.531 104.502 288.531 103.394H283.409ZM319.264 97.5366V101.72H324.387C324.387 100.61 323.928 99.5465 323.13 98.7628C322.333 97.9769 321.245 97.5366 320.11 97.5366H319.264ZM316.703 97.5366C315.568 97.5366 314.48 97.9769 313.683 98.7628C312.886 99.5465 312.427 100.61 312.427 101.72H317.549V97.5366H316.703ZM317.549 103.394H312.427C312.427 104.502 312.886 105.567 313.683 106.351C314.48 107.134 315.568 107.575 316.703 107.575H317.549V103.394ZM332.94 67.42V70.7652H261.206V67.42H332.94ZM299.622 125.146C299.863 125.146 300.081 125.234 300.225 125.392C300.395 125.549 300.491 125.761 300.491 125.984C300.491 126.204 300.395 126.417 300.225 126.576C300.081 126.732 299.863 126.82 299.622 126.82H297.931C297.689 126.82 297.471 126.732 297.326 126.576C297.157 126.417 297.06 126.204 297.06 125.984C297.06 125.761 297.157 125.549 297.326 125.392C297.471 125.234 297.689 125.146 297.931 125.146H299.622Z" fill="#12A159"/>
<path fill-rule="evenodd" clip-rule="evenodd" d="M225.341 114.274H228.748V117.622H232.179V120.969H235.586V124.315H238.992V127.66H242.423V131.005H245.83V134.355H249.261V137.7H273.156V184.553H253.948V171.588C253.948 169.046 251.846 166.986 249.261 166.986C246.652 166.986 244.549 169.046 244.549 171.588V184.553H225.341V114.274ZM234.74 150.252V155.272H233.025V156.946H234.74V156.948H241.554V156.946H243.269V155.272H241.554V150.252C241.554 149.367 241.215 148.515 240.563 147.887C239.935 147.26 239.065 146.908 238.147 146.908C237.253 146.908 236.383 147.26 235.73 147.887C235.103 148.515 234.74 149.367 234.74 150.252ZM236.432 150.251C236.432 149.327 237.204 148.579 238.147 148.579V153.598H236.432V150.251ZM265.472 155.272H263.757V150.255C263.757 149.367 263.395 148.515 262.767 147.887C262.114 147.26 261.245 146.908 260.35 146.908C258.466 146.908 256.92 148.406 256.92 150.255V155.272H255.229V156.946H256.92V156.948H263.757V156.946H265.472V155.272ZM260.35 148.579V153.598H258.635V150.251C258.635 149.327 259.408 148.579 260.35 148.579ZM251.218 175.487C251.677 175.487 252.064 175.861 252.064 176.325C252.064 176.788 251.677 177.162 251.218 177.162C250.735 177.162 250.348 176.788 250.348 176.325C250.348 175.861 250.735 175.487 251.218 175.487Z" fill="#FBCE37"/>
<path fill-rule="evenodd" clip-rule="evenodd" d="M205.054 137.698V184.55H185.435V166.981H176.036V184.55H157.239V137.698H205.054ZM164.077 146.903V156.105H173.475V146.903H164.077ZM170.069 148.572H171.76V154.429H170.069V148.572ZM197.37 146.903H187.996V156.105H197.37V146.903ZM195.679 148.572V154.429H193.964V148.572H195.679ZM181.617 174.652V176.325H178.211V174.652H181.617Z" fill="#FF8F68"/>
</g>
<defs>
<clipPath id="clip0_67_159">
<rect width="267" height="225" fill="white" transform="translate(95 29)"/>
</clipPath>
</defs>
</svg>
