<svg width="470" height="282" viewBox="0 0 470 282" fill="none" xmlns="http://www.w3.org/2000/svg">
<path d="M0 0H470V282H0V0Z" fill="url(#paint0_linear_72_203)"/>
<path d="M129.806 63.6062C129.806 62.5016 130.702 61.6062 131.806 61.6062H278.636C279.741 61.6062 280.636 62.5016 280.636 63.6062V81.2985C280.636 82.4031 279.741 83.2985 278.636 83.2985H129.806V63.6062Z" fill="white"/>
<path d="M131.806 238.615C130.702 238.615 129.806 237.72 129.806 236.615V81.5629H154.649V238.615H131.806Z" fill="white"/>
<path d="M285.072 232.542V133.021C285.072 131.917 285.968 131.021 287.072 131.021H307.915C309.019 131.021 309.915 131.917 309.915 133.021V232.542H285.072Z" fill="white"/>
<path d="M185.927 190.025C184.823 190.025 183.927 189.129 183.927 188.025V133.022C183.927 131.917 184.823 131.022 185.927 131.022H207.657C208.762 131.022 209.657 131.917 209.657 133.022V190.025H185.927Z" fill="white"/>
<path d="M148.438 214.32H309.915V236.615C309.915 237.72 309.019 238.615 307.915 238.615H148.438V214.32Z" fill="white"/>
<rect x="284.185" y="61.6062" width="26.617" height="21.6923" rx="2" fill="white"/>
<rect x="183.927" y="106.726" width="26.617" height="21.6923" rx="2" fill="white"/>
<rect x="206.996" y="167.465" width="8.87234" height="22.56" fill="white"/>
<path d="M209.214 167.465L366.698 45.5538L368.029 44.6862H368.472H368.916L368.472 46.4215L215.868 190.025L209.214 167.465Z" fill="white"/>
<path d="M369.256 45.8674C369.677 45.5097 369.721 44.8851 369.354 44.4723C368.987 44.0595 368.348 44.0149 367.927 44.3726L369.256 45.8674ZM367.362 47.4775L369.256 45.8674L367.927 44.3726L366.034 45.9827L367.362 47.4775Z" fill="white"/>
<defs>
<linearGradient id="paint0_linear_72_203" x1="2.22713e-08" y1="135.683" x2="470" y2="132.317" gradientUnits="userSpaceOnUse">
<stop stop-color="#A81333"/>
<stop offset="1" stop-color="#44113B"/>
</linearGradient>
</defs>
</svg>
