<svg width="95" height="100" viewBox="0 0 95 100" fill="none" xmlns="http://www.w3.org/2000/svg">
<path d="M76.155 48.5924C83.0435 49.0019 89.2074 44.8003 90.5585 38.7605C88.8959 36.4627 86.0537 35.0809 82.9945 35.0809C75.0419 34.9184 70.7751 43.3685 76.1585 48.5955L76.155 48.5924ZM44.0333 14.6731L62.7911 4.96938L56.8127 1.95885L30.9424 15.3421L33.004 16.3675L36.9208 18.3339L44.0333 14.6575V14.6731ZM65.1958 4.07528C65.5073 4.15969 65.7593 4.3879 65.8538 4.66301L74.5484 28.4003C74.7129 28.8098 74.5309 29.2506 74.1109 29.4757C67.2224 33.0896 63.9042 40.383 66.0008 47.2731C68.297 54.7479 76.281 59.631 84.9056 58.8495C85.3782 58.8151 85.8332 59.0777 85.9802 59.4841L94.9513 83.8778C95.0948 84.2874 94.9128 84.725 94.5138 84.9532L67.0054 99.8683C66.8759 99.934 66.7114 99.9809 66.5469 99.9809C66.3088 100.031 66.0568 99.9809 65.8363 99.8527L56.1581 94.2349C55.9901 94.138 55.8641 93.9942 55.7766 93.8316L36.8893 53.5162L8.12083 68.7564C8.06482 68.7908 7.99132 68.822 7.93881 68.8564C7.64479 68.969 7.29827 68.9346 7.02525 68.7908L0.518302 65.3738C0.042269 65.1456 -0.139744 64.6079 0.115774 64.1828L27.9532 14.9482C28.0407 14.77 28.2227 14.6231 28.4257 14.5387L56.2841 0.130019C56.5922 -0.0325437 56.9737 -0.0481747 57.3062 0.114388L65.1958 4.07528ZM36.0667 20.0189L29.3043 16.6145L2.37693 64.2234L7.26327 66.7963L30.4734 38.6136C30.6939 38.3353 31.0579 38.1884 31.4219 38.2384C31.786 38.2728 32.094 38.4791 32.2445 38.7917L57.5442 92.8625L64.3102 96.7734L36.0878 20.0189H36.0667ZM82.991 53.0222C75.0944 53.0222 69.7356 45.857 72.7598 39.342C75.77 32.8301 85.2311 31.1544 90.807 36.1376C92.8897 37.9914 94.0553 40.5018 94.0553 43.1247C94.0728 48.5924 89.1129 53.0222 82.991 53.0222Z" fill="#0043C5"/>
</svg>
