<svg width="100" height="100" viewBox="0 0 100 100" fill="none" xmlns="http://www.w3.org/2000/svg">
<g clip-path="url(#clip0_72_366)">
<path d="M58.9814 31.0469L51.8751 17.45C51.5126 16.7719 50.8095 16.3156 50.0001 16.3156C49.1907 16.3156 48.4876 16.7687 48.1314 17.4375L48.1251 17.45L16.922 73.3687L58.9814 31.0469ZM83.9126 78.7562L75.1251 24.0844C74.9626 23.0687 74.0907 22.3 73.0407 22.3C72.4501 22.3 71.9189 22.5406 71.5345 22.9312L16.0845 78.7594L46.7626 96.0469C47.6563 96.5562 48.7251 96.8594 49.8626 96.8594C51.0001 96.8594 52.072 96.5594 52.9939 96.0312L52.9626 96.0469L83.9126 78.7562ZM18.3282 64.3406L27.5626 4.94062C27.722 3.91562 28.597 3.1375 29.6563 3.1375C30.4626 3.1375 31.1657 3.5875 31.522 4.25312L31.5282 4.26562L41.4595 22.8969L18.3282 64.3406Z" fill="#0043C5"/>
</g>
<defs>
<clipPath id="clip0_72_366">
<rect width="100" height="100" fill="white"/>
</clipPath>
</defs>
</svg>
