<svg width="92" height="100" viewBox="0 0 92 100" fill="none" xmlns="http://www.w3.org/2000/svg">
<path d="M46.0001 99.8146C44.5767 99.8146 43.248 99.4475 42.0147 98.8058L29.3938 91.5617C27.496 90.5529 28.4449 90.1862 29.0142 90.0025C31.5763 89.1775 32.0508 88.9942 34.7078 87.5267C34.9925 87.3433 35.3721 87.435 35.6567 87.6183L45.3359 93.2121C45.7155 93.3954 46.1897 93.3954 46.4747 93.2121L84.3367 72.0296C84.7163 71.8462 84.9063 71.4796 84.9063 71.0208V28.7477C84.9063 28.2892 84.7163 27.9224 84.3367 27.739L46.4747 6.64817C46.0951 6.46479 45.6205 6.46479 45.3359 6.64817L7.4735 27.739C7.09396 27.9224 6.90416 28.3809 6.90416 28.7477V71.0208C6.90416 71.3879 7.09396 71.8462 7.4735 72.0296L17.8168 77.8067C23.4155 80.5575 26.9266 77.3483 26.9266 74.1387V32.4156C26.9266 31.8654 27.401 31.3152 28.0653 31.3152H32.9048C33.4742 31.3152 34.0435 31.7737 34.0435 32.4156V74.1387C34.0435 81.3829 29.9632 85.6012 22.8462 85.6012C20.6636 85.6012 18.9556 85.6012 14.116 83.3087L4.15225 77.8067C1.68504 76.4312 0.166748 73.8637 0.166748 71.1125V28.8394C0.166748 26.0884 1.68504 23.5208 4.15225 22.1453L42.0147 0.962841C44.3867 -0.320947 47.6134 -0.320947 49.9855 0.962841L87.848 22.1453C90.3151 23.5208 91.8334 26.0884 91.8334 28.8394V71.1125C91.8334 73.8637 90.3151 76.4312 87.848 77.8067L49.9855 98.9892C48.7522 99.5392 47.3284 99.8146 46.0001 99.8146ZM57.6717 70.7458C41.0655 70.7458 37.6495 63.41 37.6495 57.1746C37.6495 56.6242 38.1238 56.0742 38.7884 56.0742H43.7226C44.2922 56.0742 44.7663 56.4408 44.7663 56.9908C45.5255 61.8508 47.708 64.2354 57.7667 64.2354C65.738 64.2354 69.1538 62.4929 69.1538 58.3667C69.1538 55.9825 68.2051 54.24 55.7742 53.0479C45.4309 52.0392 38.978 49.8383 38.978 41.8608C38.978 34.433 45.4309 30.0315 56.2484 30.0315C68.3947 30.0315 74.373 34.0662 75.1322 42.8692C75.1322 43.1446 75.0372 43.4196 74.8476 43.6946C74.6576 43.8779 74.373 44.0612 74.0884 44.0612H69.1538C68.6797 44.0612 68.2051 43.6946 68.1101 43.2363C66.9713 38.1927 64.0297 36.5421 56.2484 36.5421C47.5184 36.5421 46.4747 39.4765 46.4747 41.6771C46.4747 44.3367 47.708 45.1617 59.4751 46.6292C71.1467 48.0962 76.6505 50.2054 76.6505 58.0912C76.5555 66.1608 69.7234 70.7458 57.6717 70.7458Z" fill="#0043C5"/>
</svg>
