<svg width="100" height="100" viewBox="0 0 100 100" fill="none" xmlns="http://www.w3.org/2000/svg">
<path d="M43.1708 51.8459H49.8041L46.3375 46.2042L39.9 56.4H36.9291L44.7541 44.125C44.9583 43.925 45.1875 43.7459 45.4291 43.5917L45.4458 43.5834C45.6916 43.4292 45.9916 43.3375 46.3125 43.3375H46.3375C46.6333 43.3417 46.9083 43.4334 47.1375 43.5875L47.1333 43.5834C47.3958 43.7459 47.6208 43.925 47.825 44.125L55.65 56.4H52.6791L51.2916 54.125H44.6583L43.1708 51.8459ZM73.4666 54.125V43.5334H70.9917V55.1167V55.1542C70.9917 55.3209 71.0291 55.4792 71.0958 55.6209L71.0917 55.6125C71.1708 55.7667 71.2708 55.8959 71.3875 56.0084C71.4583 56.1459 71.575 56.25 71.7166 56.3042C71.875 56.3667 72.0583 56.4042 72.25 56.4042H72.2625H83.55L84.9375 54.1292L73.4666 54.125ZM32.575 52.1417H32.6375C33.8083 52.1417 34.8708 51.6709 35.6458 50.9042C36.4375 50.1667 36.9333 49.1167 36.9333 47.95C36.9333 47.925 36.9333 47.9042 36.9333 47.8792C36.9333 47.8459 36.9333 47.8084 36.9333 47.7667C36.9333 46.5875 36.4375 45.5209 35.6458 44.7667C34.875 44 33.8125 43.5292 32.6375 43.5292C32.6167 43.5292 32.5916 43.5292 32.5708 43.5292H21.6792V56.4H24.1667V45.8084H32.3833H32.4458C33.0042 45.8084 33.5041 46.0375 33.8666 46.4042C34.2333 46.7667 34.4625 47.2709 34.4625 47.825V47.8917V47.8875C34.4583 48.4459 34.2333 48.9542 33.8708 49.325C33.5166 49.7209 33 49.9709 32.4291 49.9709C32.4125 49.9709 32.3958 49.9709 32.3833 49.9709H25.3458L32.7708 56.4084H36.3333L31.3792 52.15L32.575 52.1417ZM6.43332 56.4C6.42498 56.4 6.41248 56.4 6.39998 56.4C4.64998 56.4 3.06665 55.6792 1.93332 54.5209C0.74165 53.4 0.00415039 51.8167 0.00415039 50.0584C0.00415039 50.025 0.00415039 49.9917 0.00415039 49.9584V49.9625C0.00415039 49.9375 0.00415039 49.9042 0.00415039 49.8709C0.00415039 48.1125 0.745817 46.5292 1.93332 45.4125L1.93748 45.4084C3.07498 44.2459 4.65832 43.5292 6.40832 43.5292H6.44165H13.9667H14.0708C15.8167 43.5292 17.3917 44.25 18.5208 45.4084C19.6833 46.5375 20.4 48.1125 20.4 49.8584V49.9667V50.0584C20.4 51.8084 19.675 53.3875 18.5125 54.5167C17.3833 55.6792 15.8083 56.3959 14.0625 56.3959C14.025 56.3959 13.9875 56.3959 13.9542 56.3959L6.43332 56.4ZM13.7666 54.125H13.8667C14.9958 54.125 16.0166 53.65 16.7333 52.8875C17.4666 52.15 17.9208 51.1334 17.9208 50.0125C17.9208 49.9959 17.9208 49.9792 17.9208 49.9667V49.9709C17.9208 49.9375 17.9208 49.8959 17.9208 49.8584C17.9208 48.7417 17.4666 47.7292 16.7333 47C16.0041 46.2667 14.9916 45.8125 13.875 45.8125C13.8375 45.8125 13.7958 45.8125 13.7583 45.8125H6.62915C6.61665 45.8125 6.59998 45.8125 6.58332 45.8125C5.46248 45.8125 4.44582 46.2667 3.70832 47C2.94582 47.7209 2.47082 48.7417 2.47082 49.8709V49.975V49.9709V50C2.47082 51.1375 2.94582 52.1625 3.70415 52.8917C4.43332 53.6542 5.45832 54.1292 6.59582 54.1292H6.62498L13.7666 54.125ZM60.7958 56.4C60.7666 56.4 60.7291 56.4 60.6916 56.4C58.9458 56.4 57.3708 55.6792 56.2416 54.5209C55.0791 53.3917 54.3625 51.8167 54.3625 50.0709C54.3625 50.0334 54.3625 49.9959 54.3625 49.9625C54.3625 49.9334 54.3625 49.9 54.3625 49.8625C54.3625 48.1167 55.0833 46.5417 56.2416 45.4125C57.3708 44.25 58.9458 43.5334 60.6916 43.5334H60.8H60.7958H69.7042L68.2166 45.8084H60.8833C60.8708 45.8084 60.8541 45.8084 60.8375 45.8084C59.7166 45.8084 58.7 46.2625 57.9625 46.9959C57.2 47.7167 56.725 48.7375 56.725 49.8667V49.9709V49.9667V49.9959C56.725 51.1334 57.2 52.1584 57.9583 52.8875C58.6875 53.65 59.7125 54.125 60.85 54.125H60.8791H69.8791L68.3916 56.4H60.7958ZM90.9916 54.125C90.9833 54.125 90.9708 54.125 90.9583 54.125C90.025 54.125 89.1708 53.7875 88.5083 53.2292L88.5125 53.2334C87.8208 52.6792 87.3042 51.9417 87.0333 51.0875L87.025 51.0542H97.6166L99.0041 48.7792H87.025C87.2958 47.9125 87.8083 47.1917 88.4875 46.6709L88.4958 46.6625C89.1583 46.1375 90.0083 45.8209 90.9291 45.8209H90.975H98.3042L99.7917 43.5459H90.8833C90.8542 43.5459 90.8167 43.5459 90.7792 43.5459C89.0333 43.5459 87.4583 44.2667 86.3291 45.425C85.1666 46.5542 84.45 48.1292 84.45 49.875V49.9834V49.9792V50.0834C84.45 51.8292 85.1708 53.4042 86.3291 54.5334C87.4583 55.6959 89.0333 56.4125 90.7792 56.4125H90.8875H98.4958L99.9833 54.1375L90.9916 54.125Z" fill="#0043C5"/>
</svg>
