<svg width="100" height="100" viewBox="0 0 100 100" fill="none" xmlns="http://www.w3.org/2000/svg">
<path d="M99.3413 76.1857L57.8132 3.15448C56.7619 1.32343 54.5831 0.11703 52.138 0.0122523C49.6874 -0.123722 47.3488 0.880235 46.0705 2.61703L1.02862 63.0294C-0.369679 64.8917 -0.340259 67.2558 1.10409 69.0938L23.1254 97.3339C24.8364 99.511 28.073 100.497 31.0797 99.7562L94.9853 84.1026C96.9321 83.6312 98.5365 82.484 99.3835 80.9578C100.219 79.439 100.205 77.6925 99.3443 76.1832L99.3413 76.1857ZM90.0437 79.318L35.816 92.5968C34.1617 93.0043 32.5739 91.8169 32.918 90.4345L52.292 13.6136C52.6542 12.1762 55.0511 11.9487 55.8088 13.2786L91.6738 76.3482C91.9947 76.917 91.9986 77.5737 91.6844 78.145C91.3702 78.7164 90.7695 79.145 90.0407 79.318H90.0437Z" fill="#0043C5"/>
</svg>
