<svg width="100" height="100" viewBox="0 0 100 100" fill="none" xmlns="http://www.w3.org/2000/svg">
<g clip-path="url(#clip0_72_349)">
<path d="M49.9999 42.125C51.5374 42.1251 53.0405 42.58 54.32 43.4326C55.5994 44.2851 56.5981 45.4971 57.1902 46.916C57.7823 48.3349 57.9414 49.8972 57.6474 51.4064C57.3535 52.9155 56.6196 54.3039 55.5382 55.3968C54.4569 56.4898 53.0763 57.2383 51.5704 57.5483C50.0645 57.8583 48.5006 57.7158 47.0755 57.1389C45.6504 56.5619 44.4278 55.5762 43.5617 54.3059C42.6956 53.0356 42.2247 51.5374 42.2083 50C42.2028 48.9713 42.4 47.9516 42.7886 46.9991C43.1772 46.0466 43.7496 45.18 44.4731 44.4488C45.1966 43.7175 46.0571 43.1359 47.0054 42.7372C47.9537 42.3385 48.9712 42.1305 49.9999 42.125ZM30.7083 83.3333C33.3333 84.9167 39.0416 82.5 45.7083 76.25C43.48 73.7179 41.3802 71.0757 39.4166 68.3333C36.0559 67.9569 32.7177 67.4006 29.4166 66.6667C27.2916 75.5833 28.0833 81.7083 30.7083 83.3333ZM33.6666 59.4167L32.4583 57.2917C31.9872 58.462 31.5838 59.6584 31.2499 60.875C32.3749 61.125 33.6249 61.3333 34.9166 61.5417L33.6666 59.4167ZM60.9166 56.25L64.2916 50L60.9166 43.75C59.6666 41.5417 58.3333 39.5833 57.1249 37.625C54.8749 37.5 52.4999 37.5 49.9999 37.5C47.4999 37.5 45.1249 37.5 42.8749 37.5C41.6666 39.4583 40.3333 41.4167 39.0833 43.625L35.7082 50L39.0833 56.25C40.3333 58.4583 41.6666 60.4167 42.8749 62.375C45.1249 62.375 47.4999 62.375 49.9999 62.375C52.4999 62.375 54.8749 62.375 57.1249 62.375C58.3333 60.4167 59.6666 58.4583 60.9166 56.25ZM49.9999 28.25C49.2083 29.1667 48.3749 30.125 47.5416 31.25H52.4583C51.6249 30.125 50.7916 29.1667 49.9999 28.25ZM49.9999 71.75C50.7916 70.8333 51.6249 69.875 52.4583 68.75H47.5416C48.3749 69.875 49.2083 70.8333 49.9999 71.75ZM69.2499 16.6667C66.6666 15.0833 60.9166 17.5 54.2916 23.75C56.5198 26.2821 58.6196 28.9243 60.5832 31.6667C63.9409 31.988 67.279 32.4887 70.5833 33.1667C72.7083 24.25 71.9166 18.125 69.2499 16.5M66.3332 40.4167L67.5416 42.5417C68.0126 41.3713 68.4161 40.1749 68.7499 38.9583C67.6249 38.7083 66.3749 38.5 65.0832 38.2917L66.3332 40.4167ZM72.3749 11.25C78.4999 14.75 79.1666 23.9583 76.5416 34.7083C87.1249 37.8333 94.7499 43.0417 94.7499 50.0417C94.7499 57.0417 87.1249 62.25 76.5416 65.375C79.1249 76.125 78.4583 85.3333 72.3749 88.8333C66.2916 92.3333 57.9999 88.3333 49.9999 80.7083C41.9999 88.3333 33.7083 92.3333 27.5833 88.8333C21.4583 85.3333 20.8333 76.3333 23.4166 65.375C12.8333 62.25 5.20825 57.0417 5.20825 50.0417C5.20825 43.0417 12.8333 37.7917 23.4166 34.6667C20.8333 23.9167 21.4999 14.7083 27.5833 11.2083C33.6666 7.70834 41.9999 11.7083 49.9999 19.3333C57.9999 11.7083 66.2916 7.70834 72.3749 11.2083M71.1666 50C72.6137 53.0673 73.8933 56.2108 74.9999 59.4167C83.7499 56.7917 88.6666 53.0417 88.6666 50C88.6666 46.9583 83.6249 43.2083 74.9999 40.5833C73.8933 43.7892 72.6137 46.9327 71.1666 50ZM28.8333 50C27.3862 46.9327 26.1065 43.7892 24.9999 40.5833C16.2499 43.2083 11.3333 46.9583 11.3333 50C11.3333 53.0417 16.3749 56.7917 24.9999 59.4167C26.1065 56.2108 27.3862 53.0673 28.8333 50ZM66.3332 59.4167L65.0832 61.5417C66.3749 61.5417 67.6249 61.125 68.7499 60.875C68.4161 59.6584 68.0126 58.462 67.5416 57.2917L66.3332 59.4167ZM54.1666 76.25C60.7916 82.5 66.6666 84.9167 69.1249 83.3333C71.5832 81.75 72.5832 75.75 70.4582 66.6667C67.154 67.3446 63.8159 67.8453 60.4583 68.1667C58.4992 70.9659 56.3993 73.6638 54.1666 76.25ZM33.6666 40.5833L34.9166 38.4583C33.6249 38.4583 32.3749 38.875 31.2499 39.125C31.5838 40.3416 31.9872 41.538 32.4583 42.7083L33.6666 40.5833ZM45.8333 23.75C39.0833 17.5 33.3333 15.0833 30.7083 16.6667C28.0833 18.25 27.2916 24.25 29.4166 33.3333C32.7208 32.6554 36.0589 32.1547 39.4166 31.8333C41.4162 29.0312 43.5579 26.3332 45.8333 23.75Z" fill="#0043C5"/>
</g>
<defs>
<clipPath id="clip0_72_349">
<rect width="100" height="100" fill="white"/>
</clipPath>
</defs>
</svg>
