<svg width="100" height="100" viewBox="0 0 100 100" fill="none" xmlns="http://www.w3.org/2000/svg">
<path d="M90.925 5.2C89.5167 8.55833 87.7333 11.7417 85.5875 14.6667C76.1764 5.27298 63.422 -0.00199188 50.125 5.64228e-07C22.6292 5.64228e-07 0 22.625 0 50.1292C0 63.85 5.625 76.9833 15.5708 86.45L17.4208 88.0875C26.4602 95.6982 37.8958 99.8741 49.7125 99.8792C75.8583 99.8792 97.8375 79.4167 99.7 53.3292C101.067 40.5583 97.3167 24.4042 90.925 5.2ZM22.6958 86.7375C21.8875 87.7375 20.6542 88.3208 19.3625 88.3208C18.2267 88.3153 17.1392 87.8612 16.3369 87.0573C15.5345 86.2534 15.0825 85.1649 15.0792 84.0292C15.0792 81.6792 17.0167 79.7375 19.3625 79.7375C20.1728 79.74 20.966 79.9714 21.6505 80.4051C22.3351 80.8388 22.8831 81.4571 23.2315 82.1888C23.5799 82.9204 23.7145 83.7356 23.6197 84.5404C23.5249 85.3452 23.2047 86.1068 22.6958 86.7375ZM90.7167 71.7292C78.3458 88.2042 51.925 82.6542 34.9875 83.4458C34.9875 83.4458 31.9792 83.6292 28.9583 84.1208C28.9583 84.1208 30.0917 83.6417 31.5625 83.0792C43.45 78.9458 49.075 78.1417 56.3 74.4333C69.9083 67.5167 83.3583 52.3792 86.1583 36.6333C80.975 51.7833 65.275 64.8 50.9625 70.0917C41.1583 73.7042 23.45 77.2167 23.45 77.2167L22.7333 76.8417C10.675 70.975 10.3125 44.875 32.225 36.45C41.8208 32.7583 51.0042 34.7833 61.3667 32.3167C72.4333 29.6917 85.2333 21.3917 90.4417 10.5708C96.275 27.8792 103.296 54.9792 90.7167 71.7292Z" fill="#0043C5"/>
</svg>
