<svg width="100" height="100" viewBox="0 0 100 100" fill="none" xmlns="http://www.w3.org/2000/svg">
<path d="M56.3976 92.5022C56.5288 92.2053 56.8601 91.9991 57.1007 91.7491C60.7726 87.8991 64.4757 84.0834 68.0976 80.1866C69.2309 79.1398 70.1067 77.845 70.6565 76.4035C71.2062 74.962 71.4149 73.4128 71.2663 71.8772C71.1526 71.2196 71.0034 70.5687 70.8194 69.9272C69.8319 70.8647 68.9132 71.7178 67.9882 72.5772C66.5507 73.9147 65.1194 75.2584 63.6694 76.5803C62.8144 77.4521 61.7151 78.044 60.5166 78.2777C59.3181 78.5115 58.0769 78.3762 56.9569 77.8897C55.8232 77.4732 54.8368 76.7329 54.1201 75.7607C53.4034 74.7884 52.9881 73.6271 52.9257 72.4209C52.8921 72.2658 52.8472 72.1133 52.7913 71.9647C51.6882 72.9022 50.6319 73.7647 49.5851 74.6522L27.8257 93.0897C27.6757 93.2178 27.5132 93.3772 27.3726 93.5022H56.3819L56.3382 93.4741C56.1819 93.3647 56.2632 92.7897 56.3976 92.5022Z" fill="#0043C5"/>
<path d="M26.0445 92.5022C26.3026 92.1662 26.614 91.8748 26.9664 91.6397L57.0789 66.0928C59.1331 64.3491 61.1779 62.596 63.2133 60.8335C63.4648 60.6581 63.6619 60.4155 63.782 60.1335C64.2689 58.0119 64.3379 55.8158 63.9852 53.6678C63.6727 53.8866 63.5039 53.9803 63.3602 54.1335C60.8945 56.3397 58.4414 58.5647 55.9633 60.7585C55.1424 61.5847 54.0806 62.1293 52.9306 62.3141C51.7806 62.4988 50.6017 62.3141 49.5633 61.7866C48.5039 61.2865 47.6173 60.4824 47.0163 59.4769C46.4152 58.4713 46.127 57.3096 46.1883 56.1397C46.1883 55.8741 46.1883 55.6116 46.1883 55.1272C45.7352 55.4585 45.4039 55.6803 45.0945 55.9303C33.0424 65.5803 20.9924 75.223 8.94453 84.8584C8.40078 85.2928 7.75078 86.2616 7.03828 85.321C6.32578 84.3803 7.41016 83.9928 7.95703 83.5553C20.8008 73.2491 33.6508 62.9522 46.507 52.6647C48.6008 50.9866 48.7383 50.2835 47.3758 47.6178L46.5633 48.3803C44.3352 50.4522 42.082 52.496 39.8883 54.6022C38.9884 55.4702 37.8614 56.066 36.6373 56.3207C35.4133 56.5755 34.1421 56.4789 32.9707 56.042C31.7992 55.6051 30.7752 54.8458 30.0169 53.8517C29.2586 52.8576 28.7969 51.6694 28.6852 50.4241C28.2695 50.7366 27.9102 50.9647 27.5695 51.2303L8.50703 66.0053C8.17826 66.3278 7.80331 66.5995 7.39453 66.8116C7.08601 66.9048 6.75471 66.8883 6.45703 66.7647V93.5178H26.007C25.9343 93.3572 25.8999 93.1818 25.9064 93.0056C25.9129 92.8294 25.9602 92.6571 26.0445 92.5022Z" fill="#0043C5"/>
<path d="M78.857 7.57407C78.3258 9.3147 77.8102 11.0584 77.3445 12.8178C76.9144 14.0611 76.9645 15.4203 77.4848 16.6286C78.0051 17.8369 78.9582 18.8072 80.157 19.3491C83.8239 21.2766 87.956 22.1424 92.0883 21.8491V7.87095C92.0424 7.56448 92.0594 7.25187 92.1383 6.9522C92.2258 6.78268 92.3362 6.62601 92.4664 6.48657H78.8445C79.0539 6.73032 78.982 7.15845 78.857 7.57407Z" fill="#0043C5"/>
<path d="M51.4976 37.6022C51.4328 39.1624 50.8871 40.6644 49.9351 41.9022C46.532 46.2952 42.6239 50.2725 38.2914 53.7522C37.5927 54.3989 36.7071 54.8078 35.7617 54.9201C34.8163 55.0323 33.8596 54.8423 33.0289 54.3772C32.202 54.0239 31.5048 53.4233 31.0331 52.6578C30.5614 51.8924 30.3383 50.9996 30.3945 50.1022C30.4946 49 30.9522 47.9608 31.6976 47.1428C36.5424 42.5232 41.7915 38.3471 47.382 34.6647C47.7481 34.3776 48.1953 34.2129 48.6602 34.1938C49.1251 34.1747 49.5842 34.3023 49.9726 34.5585C50.4831 34.8754 50.8959 35.3277 51.1651 35.8649C51.4342 36.4022 51.5493 37.0035 51.4976 37.6022Z" fill="#0043C5"/>
<path d="M47.7538 56.5428C47.6813 55.8521 47.7699 55.1539 48.0129 54.5032C48.2558 53.8525 48.6463 53.267 49.1538 52.7928C53.8975 48.4175 58.987 44.4327 64.3726 40.8772C64.5351 40.7741 64.6851 40.6709 64.8632 40.5647C65.3336 40.2251 65.9036 40.0515 66.4835 40.0713C67.0633 40.0911 67.6201 40.3032 68.0663 40.6741C68.498 41.0398 68.8034 41.5322 68.9392 42.0814C69.075 42.6307 69.0342 43.2087 68.8226 43.7334C68.1412 46.0028 66.8837 48.057 65.1726 49.6959C61.7194 53.1334 58.1351 56.4584 54.5476 59.7584C54.0043 60.3171 53.2906 60.6793 52.519 60.7879C51.7473 60.8965 50.9614 60.7454 50.2851 60.3584C49.5743 59.9891 48.9691 59.4452 48.5264 58.7777C48.0836 58.1103 47.8177 57.3412 47.7538 56.5428Z" fill="#0043C5"/>
<path d="M70.3037 58.6084C69.4287 59.5459 68.5287 60.4397 67.6881 61.3991C67.4353 61.7699 67.2256 62.1683 67.063 62.5866C67.5255 62.7241 68.0662 63.0866 68.4412 62.9584C70.3505 62.3178 72.213 61.5491 74.3099 60.7397C73.8537 61.7897 73.5099 62.7584 73.0256 63.6459C71.0301 66.9995 68.5311 70.0265 65.6162 72.621C64.5078 73.6897 63.3568 74.7116 62.1631 75.6866C61.5309 76.2112 60.7707 76.5585 59.9603 76.6929C59.1498 76.8273 58.3183 76.744 57.5506 76.4516C56.7829 76.1591 56.1067 75.668 55.5911 75.0284C55.0755 74.3889 54.7391 73.6238 54.6162 72.8116C54.5661 72.36 54.606 71.9029 54.7337 71.4668C54.8613 71.0307 55.0742 70.6243 55.3599 70.2709C59.6125 65.653 64.4725 61.634 69.8068 58.3241C69.8717 58.2989 69.9404 58.2852 70.0099 58.2834L70.3037 58.6084Z" fill="#0043C5"/>
<path d="M77.4727 46.1616L82.8195 22.4116L86.5695 23.2897L84.6352 29.1678C82.8289 34.6366 81.0008 40.1053 79.2383 45.5803C78.8945 46.5928 78.4445 46.7803 77.4727 46.1616Z" fill="#0043C5"/>
<path d="M71.4351 60.1303C72.0007 57.9709 72.5632 55.9741 73.0382 53.9553C73.5011 51.9976 74.3816 50.163 75.6194 48.5772C76.3788 47.5803 77.2319 47.9772 78.1038 48.1928C78.9101 48.3897 79.1132 48.9803 79.1476 49.7553C79.2747 51.8985 78.622 54.0153 77.3101 55.7147C75.7482 57.651 73.7293 59.1684 71.4351 60.1303Z" fill="#0043C5"/>
<path d="M93.7194 9.04595C93.7661 8.34997 93.7483 7.65116 93.6663 6.95845C93.6018 6.76496 93.4741 6.59876 93.3038 6.48658C93.1651 6.37378 93.0027 6.29367 92.8288 6.2522C92.7288 6.23345 92.5882 6.33658 92.4538 6.48345C92.3236 6.62289 92.2132 6.77956 92.1257 6.94908C92.0468 7.24875 92.0298 7.56136 92.0757 7.86783V21.8428C87.9434 22.1361 83.8113 21.2703 80.1444 19.3428C78.9456 18.801 77.9925 17.8307 77.4722 16.6224C76.9519 15.414 76.9018 14.0549 77.3319 12.8116C77.7975 11.0522 78.3132 9.30845 78.8444 7.56783C78.9694 7.1522 79.0413 6.72408 78.8444 6.48033C78.7349 6.36167 78.5837 6.28999 78.4225 6.28033C78.2161 6.28255 78.0162 6.35286 77.8538 6.48033C77.6201 6.62011 77.4339 6.827 77.3194 7.07408C76.6944 8.94908 76.1444 10.8428 75.6663 12.7553C75.4858 13.509 75.4371 14.2882 75.5225 15.0584C75.6435 16.4521 76.1618 17.7818 77.0159 18.8897C77.8701 19.9975 79.0242 20.837 80.3413 21.3085C80.9319 21.5553 81.2788 21.7991 81.1132 22.5772C80.885 23.5647 80.6632 24.5522 80.4382 25.5428C78.9069 32.2553 77.384 38.9709 75.8694 45.6897C75.8267 45.9893 75.695 46.2691 75.4913 46.4928C74.493 47.2863 73.6542 48.2619 73.0194 49.3678C72.2104 50.8273 71.6507 52.4116 71.3632 54.0553C71.308 54.5797 71.1185 55.0809 70.8131 55.5106C70.5076 55.9403 70.0965 56.284 69.6194 56.5085C68.3163 57.1678 67.1194 58.021 65.6725 58.9085C65.769 57.1685 65.7502 55.4241 65.6163 53.6866C65.5062 53.1521 65.5296 52.5987 65.6844 52.0754C65.8392 51.5522 66.1206 51.0751 66.5038 50.6866C68.4097 48.7984 69.7683 46.429 70.435 43.8303C70.6342 43.2279 70.6888 42.5871 70.5944 41.9597C70.5001 41.3323 70.2594 40.7359 69.8919 40.2188C69.5244 39.7016 69.0404 39.2781 68.479 38.9826C67.9175 38.6872 67.2944 38.5279 66.66 38.5178C65.6329 38.5064 64.6245 38.7929 63.7569 39.3428C60.7663 41.3616 57.8569 43.5053 54.9694 45.6741C53.26 46.9616 51.6507 48.3866 49.9944 49.7366C49.923 49.6599 49.8611 49.5749 49.81 49.4834C49.7784 49.2534 49.7164 49.0285 49.6257 48.8147C48.2413 46.6772 49.2007 45.1241 50.7038 43.5272C52.2698 41.8857 53.1351 39.6989 53.1163 37.4303C53.1648 36.2745 52.8029 35.1387 52.0944 34.2241C51.717 33.7598 51.2519 33.3744 50.7257 33.0897C49.9781 32.6806 49.1234 32.5098 48.2761 32.6003C47.4287 32.6908 46.6293 33.0382 45.985 33.5959L45.1132 34.2209C43.1225 35.6459 41.1069 37.0335 39.1913 38.5585C36.3944 40.7835 33.6632 43.1022 30.985 45.4772C29.735 46.5803 28.8225 48.0866 27.5257 49.1116C20.7632 54.4522 13.9288 59.696 7.11942 64.9741C6.88528 65.1138 6.66998 65.2828 6.47879 65.4772C6.45911 65.5056 6.44236 65.536 6.42879 65.5678C6.28504 65.9022 6.16317 66.4553 6.33192 66.6584C6.37328 66.7025 6.42328 66.7376 6.47879 66.7616C6.77647 66.8851 7.10777 66.9017 7.41629 66.8085C7.82508 66.5964 8.20002 66.3247 8.52879 66.0022L27.5913 51.2272C27.9319 50.9616 28.2913 50.721 28.7069 50.421C28.8187 51.6662 29.2803 52.8545 30.0387 53.8486C30.797 54.8426 31.821 55.6019 32.9924 56.0388C34.1639 56.4757 35.435 56.5724 36.6591 56.3176C37.8831 56.0628 39.0102 55.4671 39.91 54.5991C42.0975 52.4928 44.3569 50.4491 46.585 48.3772L47.3975 47.6147C48.76 50.2803 48.6225 50.9834 46.5288 52.6616C33.6621 62.9574 20.8048 73.2553 7.95692 83.5553C7.41004 83.9928 6.32879 84.3897 7.03817 85.3209C7.74754 86.2522 8.40067 85.2928 8.94442 84.8584C20.9986 75.2314 33.0444 65.5918 45.0819 55.9397C45.3944 55.6897 45.7225 55.4678 46.1757 55.1366C46.1757 55.6209 46.1757 55.8834 46.1757 56.1491C46.1144 57.319 46.4026 58.4806 47.0036 59.4862C47.6047 60.4918 48.4913 61.2958 49.5507 61.7959C50.5891 62.3235 51.768 62.5082 52.918 62.3234C54.068 62.1387 55.1297 61.5941 55.9507 60.7678C58.4288 58.5803 60.8819 56.3491 63.3475 54.1428C63.5038 54.0022 63.685 53.896 63.9725 53.6772C64.3253 55.8252 64.2563 58.0213 63.7694 60.1428C63.6492 60.4249 63.4522 60.6675 63.2007 60.8428C61.1632 62.6032 59.1184 64.3564 57.0663 66.1022L26.9663 91.6522C26.6139 91.8873 26.3025 92.1787 26.0444 92.5147C25.9621 92.668 25.9159 92.838 25.9094 93.0119C25.9029 93.1858 25.9362 93.3588 26.0069 93.5178C26.1481 93.6236 26.3113 93.6962 26.4845 93.7303C26.6576 93.7644 26.8361 93.7591 27.0069 93.7147C27.1417 93.6756 27.2657 93.6061 27.3694 93.5116C27.5257 93.3866 27.6819 93.2272 27.8225 93.0991L49.5819 74.6616C50.6288 73.7741 51.685 72.8991 52.7882 71.9741C52.844 72.1227 52.889 72.2752 52.9225 72.4303C52.985 73.6365 53.4003 74.7978 54.117 75.77C54.8336 76.7423 55.8201 77.4826 56.9538 77.8991C58.0738 78.3856 59.315 78.5209 60.5134 78.2871C61.7119 78.0533 62.8113 77.4615 63.6663 76.5897C65.1163 75.2678 66.5475 73.9241 67.985 72.5866C68.9225 71.7272 69.8288 70.8647 70.8163 69.9366C71.0003 70.578 71.1495 71.229 71.2632 71.8866C71.4068 73.4171 71.1957 74.9602 70.6461 76.3959C70.0965 77.8316 69.2234 79.1213 68.0944 80.1647C64.4725 84.0647 60.7694 87.8803 57.0975 91.7272C56.8569 91.9772 56.5257 92.1835 56.3944 92.4803C56.2632 92.7772 56.1788 93.3584 56.335 93.4834L56.3788 93.5116C56.7065 93.6709 57.0749 93.7265 57.435 93.671C57.5359 93.6503 57.6259 93.5936 57.6882 93.5116C57.7757 93.421 57.86 93.3084 57.9444 93.2241C60.9194 90.1491 63.91 87.0897 66.8632 83.9928C68.0552 82.7851 69.1758 81.509 70.2194 80.1709C71.5802 78.6645 72.4825 76.8007 72.8202 74.7989C73.1579 72.7971 72.917 70.7405 72.1257 68.8709C72.0406 68.4541 72.1237 68.0205 72.3569 67.6647C72.56 67.3147 72.785 66.9741 73.0163 66.6366C73.7562 65.6759 74.3725 64.626 74.8507 63.5116C75.7747 60.7765 77.193 58.2344 79.035 56.0116C79.8819 54.9379 80.4645 53.6802 80.7359 52.34C81.0073 50.9998 80.9599 49.6145 80.5975 48.296C80.4695 47.7946 80.4695 47.2692 80.5975 46.7678C82.1788 41.8709 83.8069 36.9897 85.4194 32.1053C86.1423 29.9178 86.8611 27.7366 87.5757 25.5616L88.2413 23.5397C89.66 23.5397 90.9975 23.5116 92.3288 23.5397C93.435 23.571 93.7725 23.0522 93.76 21.9772C93.6944 17.6647 93.7194 13.3553 93.7194 9.04595ZM38.2913 53.7522C37.5926 54.3989 36.707 54.8078 35.7616 54.9201C34.8162 55.0323 33.8595 54.8423 33.0288 54.3772C32.2019 54.0239 31.5048 53.4233 31.0331 52.6578C30.5614 51.8924 30.3383 50.9996 30.3944 50.1022C30.4945 49 30.9521 47.9608 31.6975 47.1428C36.5423 42.5232 41.7915 38.3471 47.3819 34.6647C47.687 34.449 48.0341 34.2999 48.4007 34.2272C48.6465 34.1818 48.8986 34.1818 49.1444 34.2272C49.4388 34.2845 49.7198 34.3969 49.9725 34.5584C50.4836 34.8757 50.8966 35.3284 51.1658 35.8663C51.435 36.4041 51.5499 37.0061 51.4975 37.6053C51.4328 39.1655 50.887 40.6675 49.935 41.9053C46.5318 46.2972 42.6237 50.2735 38.2913 53.7522ZM54.5413 59.7803C53.998 60.339 53.2844 60.7011 52.5127 60.8098C51.7411 60.9184 50.9552 60.7673 50.2788 60.3803C49.5668 60.0102 48.9608 59.4648 48.5179 58.7956C48.0751 58.1264 47.8099 57.3554 47.7475 56.5553C47.675 55.8646 47.7637 55.1664 48.0066 54.5157C48.2495 53.865 48.6401 53.2795 49.1475 52.8053C53.8912 48.43 58.9807 44.4452 64.3663 40.8897C64.5288 40.7866 64.6788 40.6835 64.8569 40.5772C65.3273 40.2376 65.8973 40.064 66.4772 40.0838C67.0571 40.1036 67.6139 40.3157 68.06 40.6866C68.4917 41.0523 68.7972 41.5447 68.933 42.094C69.0687 42.6432 69.0279 43.2212 68.8163 43.7459C68.1349 46.0153 66.8775 48.0695 65.1663 49.7084C61.7194 53.1522 58.135 56.4678 54.5475 59.7678L54.5413 59.7803ZM73.0132 63.6585C71.0205 67.0067 68.5258 70.0294 65.6163 72.621C64.508 73.6897 63.3569 74.7116 62.1632 75.6866C61.531 76.2112 60.7708 76.5585 59.9604 76.6929C59.15 76.8273 58.3184 76.744 57.5507 76.4516C56.783 76.1591 56.1068 75.668 55.5912 75.0284C55.0756 74.3889 54.7392 73.6238 54.6163 72.8116C54.5662 72.36 54.6061 71.9029 54.7338 71.4668C54.8615 71.0307 55.0743 70.6243 55.36 70.2709C59.6126 65.653 64.4726 61.634 69.8069 58.3241C69.8718 58.2989 69.9405 58.2852 70.01 58.2834L70.3225 58.5959C69.4475 59.5334 68.5475 60.4272 67.7069 61.3866C67.4541 61.7574 67.2445 62.1558 67.0819 62.5741C67.5444 62.7116 68.085 63.0741 68.46 62.946C69.9694 62.4397 71.4538 61.8522 73.0444 61.2272L74.3288 60.7272C73.8475 61.7897 73.5038 62.7584 73.0194 63.6459L73.0132 63.6585ZM77.3038 55.7366C76.1381 57.2206 74.6771 58.4464 73.0132 59.3366C72.4986 59.6241 71.9705 59.8928 71.4288 60.1428C71.985 58.0147 72.5413 56.0428 73.0132 54.0491L73.0319 53.9678C73.4948 52.0101 74.3754 50.1755 75.6132 48.5897C76.3725 47.5928 77.2257 47.9897 78.0975 48.2053C78.9038 48.4022 79.1069 48.9928 79.1413 49.7678C79.2694 51.9091 78.619 54.0246 77.31 55.7241L77.3038 55.7366ZM84.6163 29.1741C82.81 34.6428 80.9819 40.1116 79.2194 45.5866C78.8882 46.6147 78.4382 46.8022 77.4663 46.1834L82.1007 25.5803L82.8132 22.4178L86.5632 23.296C86.3069 24.0678 86.06 24.8272 85.81 25.5803L84.6163 29.1741Z" fill="white"/>
</svg>
