<svg width="100" height="100" viewBox="0 0 100 100" fill="none" xmlns="http://www.w3.org/2000/svg">
<path d="M5 50V95H95V5H5V50ZM77.5231 46.4112C79.8097 46.9822 81.5506 48.0088 83.1622 49.6625C83.9834 50.54 85.2125 52.1516 85.3166 52.5481C85.3447 52.6663 81.4353 55.2875 79.0616 56.7528C78.9744 56.8119 78.6228 56.4462 78.2403 55.8725C77.0844 54.1878 75.8666 53.4566 74.0075 53.3244C71.2822 53.1472 69.5244 54.5703 69.5384 56.9581C69.5244 57.5431 69.6566 58.1309 69.9181 58.6428C70.52 59.8887 71.6478 60.6341 75.1325 62.1444C81.5788 64.9119 84.3322 66.7428 86.045 69.3359C87.9631 72.2356 88.3878 76.865 87.0997 80.3216C85.6653 84.0566 82.1188 86.6047 77.1378 87.44C75.5994 87.7184 71.9375 87.6734 70.2809 87.3669C66.6641 86.7228 63.2356 84.9341 61.1262 82.5912C60.2909 81.6828 58.6794 79.295 58.7834 79.1347C58.8284 79.0756 59.1941 78.8422 59.6047 78.6059C60.0153 78.3697 61.5228 77.4922 62.9459 76.6709L65.5391 75.1634L66.0819 75.9678C66.8441 77.1237 68.4978 78.7072 69.4962 79.2331C72.3678 80.7575 76.3081 80.5381 78.2572 78.7944C79.0475 78.1363 79.4891 77.1238 79.43 76.1C79.43 75.0594 79.2978 74.5925 78.755 73.8134C78.0519 72.8178 76.6316 71.9684 72.5731 70.2106C67.9297 68.2025 65.9216 66.9734 64.1075 64.9963C62.9656 63.6913 62.1162 62.1556 61.6325 60.4991C61.295 59.225 61.2078 56.03 61.4722 54.7559C62.4256 50.2588 65.8231 47.1397 70.7 46.2172C72.2834 45.9106 75.9734 46.0259 77.5259 46.4084L77.5231 46.4112ZM56.4012 50.1772L56.4294 53.8531H44.7097V87.1503H36.4184V53.8531H24.7156V50.2503C24.7156 48.2422 24.7606 46.5744 24.8169 46.5294C24.8619 46.4703 31.9803 46.4422 40.6231 46.4562L56.3563 46.5012L56.4012 50.1772Z" fill="#0043C5"/>
</svg>
